<svg width="27" height="20" viewBox="0 0 27 20" fill="none" xmlns="http://www.w3.org/2000/svg">
<path d="M15.8333 7.54996V5.56663C16.475 5.2944 17.1314 5.09024 17.8027 4.95413C18.4731 4.81802 19.1778 4.74996 19.9167 4.74996C20.4222 4.74996 20.918 4.78885 21.4042 4.86663C21.8903 4.9444 22.3667 5.04163 22.8333 5.15829V7.02496C22.3667 6.84996 21.8953 6.7189 21.4193 6.63179C20.9425 6.5439 20.4417 6.49996 19.9167 6.49996C19.1778 6.49996 18.468 6.59251 17.7875 6.77763C17.1069 6.96196 16.4555 7.2194 15.8333 7.54996ZM15.8333 13.9666V11.9833C16.475 11.7111 17.1314 11.5069 17.8027 11.3708C18.4731 11.2347 19.1778 11.1666 19.9167 11.1666C20.4222 11.1666 20.918 11.2055 21.4042 11.2833C21.8903 11.3611 22.3667 11.4583 22.8333 11.575V13.4416C22.3667 13.2666 21.8953 13.1356 21.4193 13.0485C20.9425 12.9606 20.4417 12.9166 19.9167 12.9166C19.1778 12.9166 18.468 13.0041 17.7875 13.1791C17.1069 13.3541 16.4555 13.6166 15.8333 13.9666ZM15.8333 10.7583V8.77496C16.475 8.50274 17.1314 8.29857 17.8027 8.16246C18.4731 8.02635 19.1778 7.95829 19.9167 7.95829C20.4222 7.95829 20.918 7.99718 21.4042 8.07496C21.8903 8.15274 22.3667 8.24996 22.8333 8.36663V10.2333C22.3667 10.0583 21.8953 9.92724 21.4193 9.84013C20.9425 9.75224 20.4417 9.70829 19.9167 9.70829C19.1778 9.70829 18.468 9.80085 17.7875 9.98596C17.1069 10.1703 16.4555 10.4277 15.8333 10.7583ZM7.08332 14.6666C7.99721 14.6666 8.88699 14.7685 9.75266 14.9723C10.6175 15.1768 11.4778 15.4833 12.3333 15.8916V4.39996C11.5361 3.93329 10.6903 3.58329 9.79582 3.34996C8.90138 3.11663 7.99721 2.99996 7.08332 2.99996C6.38332 2.99996 5.68838 3.06802 4.99849 3.20413C4.30782 3.34024 3.64166 3.5444 2.99999 3.81663V15.3666C3.68055 15.1333 4.35643 14.9583 5.02766 14.8416C5.6981 14.725 6.38332 14.6666 7.08332 14.6666ZM14.6667 15.8916C15.5222 15.4833 16.3828 15.1768 17.2485 14.9723C18.1134 14.7685 19.0028 14.6666 19.9167 14.6666C20.6167 14.6666 21.3023 14.725 21.9735 14.8416C22.6439 14.9583 23.3194 15.1333 24 15.3666V3.81663C23.3583 3.5444 22.6925 3.34024 22.0027 3.20413C21.312 3.06802 20.6167 2.99996 19.9167 2.99996C19.0028 2.99996 18.0986 3.11663 17.2042 3.34996C16.3097 3.58329 15.4639 3.93329 14.6667 4.39996V15.8916ZM13.5 19.3333C12.5667 18.5944 11.5555 18.0208 10.4667 17.6125C9.37777 17.2041 8.24999 17 7.08332 17C6.26666 17 5.46477 17.1069 4.67766 17.3208C3.88977 17.5347 3.1361 17.8361 2.41666 18.225C2.00832 18.4388 1.61477 18.4291 1.23599 18.1958C0.856434 17.9625 0.666656 17.6222 0.666656 17.175V3.11663C0.666656 2.90274 0.720323 2.69857 0.827657 2.50413C0.934212 2.30968 1.09443 2.16385 1.30832 2.06663C2.20277 1.59996 3.1361 1.24996 4.10832 1.01663C5.08055 0.783293 6.07221 0.666626 7.08332 0.666626C8.2111 0.666626 9.31477 0.812459 10.3943 1.10413C11.4731 1.39579 12.5083 1.83329 13.5 2.41663C14.4917 1.83329 15.5273 1.39579 16.6068 1.10413C17.6856 0.812459 18.7889 0.666626 19.9167 0.666626C20.9278 0.666626 21.9194 0.783293 22.8917 1.01663C23.8639 1.24996 24.7972 1.59996 25.6917 2.06663C25.9055 2.16385 26.0662 2.30968 26.1735 2.50413C26.28 2.69857 26.3333 2.90274 26.3333 3.11663V17.175C26.3333 17.6222 26.1439 17.9625 25.7652 18.1958C25.3856 18.4291 24.9917 18.4388 24.5833 18.225C23.8639 17.8361 23.1102 17.5347 22.3223 17.3208C21.5352 17.1069 20.7333 17 19.9167 17C18.75 17 17.6222 17.2041 16.5333 17.6125C15.4444 18.0208 14.4333 18.5944 13.5 19.3333Z" fill="#C2C2C2"/>
</svg>
