<svg width="25" height="23" viewBox="0 0 25 23" fill="none" xmlns="http://www.w3.org/2000/svg">
<path d="M20.1125 6.68336C20.0153 6.68336 19.9134 6.65419 19.8068 6.59586C19.6995 6.53752 19.6264 6.45002 19.5875 6.33336L18.8292 4.70002L17.1958 3.94169C17.0792 3.9028 16.9917 3.82969 16.9333 3.72236C16.875 3.6158 16.8458 3.51391 16.8458 3.41669C16.8458 3.31947 16.875 3.21719 16.9333 3.10986C16.9917 3.0033 17.0792 2.93058 17.1958 2.89169L18.8292 2.13336L19.5875 0.500024C19.6264 0.383358 19.6995 0.295858 19.8068 0.237524C19.9134 0.179191 20.0153 0.150024 20.1125 0.150024C20.2097 0.150024 20.312 0.179191 20.4193 0.237524C20.5259 0.295858 20.5986 0.383358 20.6375 0.500024L21.3958 2.13336L23.0292 2.89169C23.1458 2.93058 23.2333 3.0033 23.2917 3.10986C23.35 3.21719 23.3792 3.31947 23.3792 3.41669C23.3792 3.51391 23.35 3.6158 23.2917 3.72236C23.2333 3.82969 23.1458 3.9028 23.0292 3.94169L21.3958 4.70002L20.6375 6.33336C20.5986 6.45002 20.5259 6.53752 20.4193 6.59586C20.312 6.65419 20.2097 6.68336 20.1125 6.68336ZM22.4458 14.8792C22.3486 14.8792 22.2514 14.85 22.1542 14.7917C22.0569 14.7334 21.9792 14.6556 21.9208 14.5584L21.5125 13.6834L20.6375 13.275C20.5792 13.2361 20.4722 13.0611 20.3167 12.75C20.3167 12.6528 20.3458 12.5556 20.4042 12.4584C20.4625 12.3611 20.5403 12.2834 20.6375 12.225L21.5125 11.8167L21.9208 10.9417C21.9597 10.8834 22.1347 10.7764 22.4458 10.6209C22.5431 10.6209 22.6403 10.65 22.7375 10.7084C22.8347 10.7667 22.9125 10.8445 22.9708 10.9417L23.3792 11.8167L24.2542 12.225C24.3125 12.2639 24.4194 12.4389 24.575 12.75C24.575 12.8472 24.5458 12.9445 24.4875 13.0417C24.4292 13.1389 24.3514 13.2167 24.2542 13.275L23.3792 13.6834L22.9708 14.5584C22.9319 14.6167 22.7569 14.7236 22.4458 14.8792ZM8.3 22.6667C8.00833 22.6667 7.75555 22.5695 7.54166 22.375C7.32777 22.1806 7.20139 21.9375 7.1625 21.6459L6.92916 19.925C6.77361 19.8667 6.62311 19.7889 6.47766 19.6917C6.33144 19.5945 6.20972 19.4972 6.1125 19.4L4.50833 20.1C4.23611 20.2167 3.95922 20.2311 3.67766 20.1432C3.39533 20.0561 3.17639 19.8764 3.02083 19.6042L1.15416 16.3375C0.998608 16.0653 0.949997 15.7884 1.00833 15.5069C1.06666 15.2245 1.22222 14.9959 1.475 14.8209L2.84583 13.8V12.8667L1.475 11.8459C1.22222 11.6709 1.06666 11.4422 1.00833 11.1599C0.949997 10.8783 0.998608 10.6014 1.15416 10.3292L3.02083 7.06252C3.17639 6.7903 3.39533 6.61025 3.67766 6.52236C3.95922 6.43525 4.23611 6.45002 4.50833 6.56669L6.1125 7.26669C6.20972 7.16947 6.33144 7.07225 6.47766 6.97502C6.62311 6.8778 6.77361 6.80002 6.92916 6.74169L7.1625 5.02086C7.20139 4.72919 7.32777 4.48614 7.54166 4.29169C7.75555 4.09725 8.00833 4.00002 8.3 4.00002H12.0917C12.3833 4.00002 12.6361 4.09725 12.85 4.29169C13.0639 4.48614 13.1903 4.72919 13.2292 5.02086L13.4625 6.74169C13.6181 6.80002 13.7689 6.8778 13.9152 6.97502C14.0606 7.07225 14.1819 7.16947 14.2792 7.26669L15.8833 6.56669C16.1556 6.45002 16.4328 6.43525 16.7152 6.52236C16.9967 6.61025 17.2153 6.7903 17.3708 7.06252L19.2375 10.3292C19.3931 10.6014 19.4417 10.8783 19.3833 11.1599C19.325 11.4422 19.1694 11.6709 18.9167 11.8459L17.5458 12.8667V13.8L18.9167 14.8209C19.1694 14.9959 19.325 15.2245 19.3833 15.5069C19.4417 15.7884 19.3931 16.0653 19.2375 16.3375L17.3708 19.6042C17.2153 19.8764 16.9967 20.0561 16.7152 20.1432C16.4328 20.2311 16.1556 20.2167 15.8833 20.1L14.2792 19.4C14.1819 19.4972 14.0606 19.5945 13.9152 19.6917C13.7689 19.7889 13.6181 19.8667 13.4625 19.925L13.2292 21.6459C13.1903 21.9375 13.0639 22.1806 12.85 22.375C12.6361 22.5695 12.3833 22.6667 12.0917 22.6667H8.3ZM10.1958 16.8334C11.1681 16.8334 11.9944 16.4931 12.675 15.8125C13.3556 15.132 13.6958 14.3056 13.6958 13.3334C13.6958 12.3611 13.3556 11.5347 12.675 10.8542C11.9944 10.1736 11.1681 9.83336 10.1958 9.83336C9.22361 9.83336 8.39722 10.1736 7.71666 10.8542C7.03611 11.5347 6.69583 12.3611 6.69583 13.3334C6.69583 14.3056 7.03611 15.132 7.71666 15.8125C8.39722 16.4931 9.22361 16.8334 10.1958 16.8334Z" fill="#C2C2C2"/>
</svg>
